<svg xmlns="http://www.w3.org/2000/svg" xmlns:xlink="http://www.w3.org/1999/xlink" width="160" zoomAndPan="magnify" viewBox="0 0 120 30.000001" height="40" preserveAspectRatio="xMidYMid meet" version="1.2"><defs/><g id="5501e343a9"><g style="fill:#ff1e88;fill-opacity:1;"><g transform="translate(3.867195, 21.203529)"><path style="stroke:none" d="M 5.890625 -12.96875 L 5.890625 -12.328125 L 4.015625 -12.328125 L 4.015625 -12.675781 L 4.332031 -12.8125 L 7.410156 -5.683594 L 7.09375 -5.542969 L 6.777344 -5.683594 L 9.0625 -10.84375 C 9.195312 -11.15625 9.304688 -11.425781 9.398438 -11.652344 C 9.472656 -11.839844 9.511719 -12.011719 9.511719 -12.175781 C 9.511719 -12.21875 9.5 -12.25 9.476562 -12.261719 C 9.414062 -12.308594 9.292969 -12.328125 9.117188 -12.328125 L 7.980469 -12.328125 L 7.980469 -13.3125 L 12.449219 -13.3125 L 12.449219 -12.328125 L 11.550781 -12.328125 C 11.371094 -12.328125 11.21875 -12.320312 11.097656 -12.304688 C 11.027344 -12.292969 10.96875 -12.265625 10.914062 -12.222656 C 10.839844 -12.164062 10.765625 -12.066406 10.691406 -11.929688 C 10.597656 -11.769531 10.484375 -11.542969 10.355469 -11.246094 L 7.5 -4.90625 L 7.183594 -5.046875 L 7.53125 -5.046875 L 7.53125 -0.292969 L 7.183594 -0.292969 L 7.183594 -0.640625 L 9.484375 -0.640625 L 9.484375 0.34375 L 3.007812 0.34375 L 3.007812 -0.640625 L 5.304688 -0.640625 L 5.304688 -0.292969 L 4.960938 -0.292969 L 4.960938 -4.753906 L 5.304688 -4.753906 L 4.988281 -4.613281 L 1.542969 -12.535156 L 1.859375 -12.675781 L 1.859375 -12.328125 L -0.160156 -12.328125 L -0.160156 -13.3125 L 5.890625 -13.3125 Z M 5.199219 -12.96875 L 5.542969 -12.96875 L 5.542969 -12.625 L 0.183594 -12.625 L 0.183594 -12.96875 L 0.53125 -12.96875 L 0.53125 -12.675781 L 0.183594 -12.675781 L 0.183594 -13.019531 L 2.085938 -13.019531 L 5.652344 -4.824219 L 5.652344 0.0507812 L 3.351562 0.0507812 L 3.351562 -0.292969 L 3.699219 -0.292969 L 3.699219 0 L 3.351562 0 L 3.351562 -0.34375 L 9.136719 -0.34375 L 9.136719 0 L 8.792969 0 L 8.792969 -0.292969 L 9.136719 -0.292969 L 9.136719 0.0507812 L 6.839844 0.0507812 L 6.839844 -5.121094 L 9.722656 -11.523438 C 9.863281 -11.839844 9.984375 -12.09375 10.089844 -12.273438 C 10.207031 -12.484375 10.335938 -12.644531 10.472656 -12.757812 C 10.628906 -12.882812 10.804688 -12.960938 11.007812 -12.988281 C 11.15625 -13.007812 11.339844 -13.019531 11.550781 -13.019531 L 12.101562 -13.019531 L 12.101562 -12.675781 L 11.757812 -12.675781 L 11.757812 -12.96875 L 12.101562 -12.96875 L 12.101562 -12.625 L 8.328125 -12.625 L 8.328125 -12.96875 L 8.671875 -12.96875 L 8.671875 -12.675781 L 8.328125 -12.675781 L 8.328125 -13.019531 L 9.117188 -13.019531 C 9.433594 -13.019531 9.683594 -12.957031 9.863281 -12.835938 C 10.089844 -12.683594 10.199219 -12.464844 10.199219 -12.175781 C 10.199219 -11.921875 10.144531 -11.660156 10.039062 -11.394531 C 9.945312 -11.164062 9.828125 -10.886719 9.691406 -10.5625 L 7.089844 -4.683594 L 3.492188 -13.019531 L 5.542969 -13.019531 L 5.542969 -12.675781 L 5.199219 -12.675781 Z M 5.199219 -12.96875 "/></g></g><g style="fill:#ff1e88;fill-opacity:1;"><g transform="translate(16.153245, 21.203529)"><path style="stroke:none" d="M 9.167969 -9.320312 C 9.167969 -8.851562 9.097656 -8.417969 8.957031 -8.023438 C 8.816406 -7.636719 8.621094 -7.269531 8.367188 -6.917969 C 8.121094 -6.574219 7.824219 -6.242188 7.472656 -5.917969 C 7.132812 -5.601562 6.757812 -5.289062 6.34375 -4.976562 C 5.378906 -4.242188 4.574219 -3.589844 3.921875 -3.011719 C 3.28125 -2.441406 2.738281 -1.878906 2.296875 -1.332031 L 2.027344 -1.546875 L 2.027344 -1.894531 L 8.621094 -1.894531 L 8.621094 -1.546875 L 8.277344 -1.59375 L 8.597656 -3.902344 L 9.601562 -3.902344 L 9.074219 0.34375 L 0.226562 0.34375 L 0.394531 -0.117188 C 0.523438 -0.484375 0.695312 -0.835938 0.90625 -1.167969 C 1.109375 -1.5 1.363281 -1.828125 1.65625 -2.164062 C 1.949219 -2.492188 2.285156 -2.832031 2.667969 -3.183594 L 3.929688 -4.34375 C 4.375 -4.742188 4.769531 -5.140625 5.117188 -5.539062 C 5.457031 -5.933594 5.746094 -6.339844 5.980469 -6.761719 C 6.210938 -7.179688 6.390625 -7.617188 6.519531 -8.070312 C 6.648438 -8.519531 6.710938 -9.003906 6.710938 -9.523438 C 6.710938 -10.4375 6.496094 -11.15625 6.070312 -11.683594 C 5.660156 -12.1875 5.085938 -12.4375 4.347656 -12.4375 C 4.03125 -12.4375 3.722656 -12.382812 3.425781 -12.277344 C 3.121094 -12.164062 2.851562 -12.019531 2.617188 -11.832031 C 2.390625 -11.652344 2.207031 -11.4375 2.070312 -11.191406 C 1.941406 -10.953125 1.875 -10.691406 1.875 -10.40625 C 1.875 -10.339844 1.878906 -10.289062 1.890625 -10.253906 C 1.890625 -10.246094 1.894531 -10.242188 1.894531 -10.242188 C 1.890625 -10.25 1.882812 -10.257812 1.871094 -10.265625 C 1.867188 -10.273438 1.863281 -10.273438 1.863281 -10.277344 C 1.871094 -10.273438 1.878906 -10.269531 1.894531 -10.265625 C 1.941406 -10.25 2.003906 -10.242188 2.082031 -10.238281 L 2.0625 -9.890625 L 2.0625 -10.238281 C 2.179688 -10.238281 2.304688 -10.226562 2.4375 -10.207031 C 2.597656 -10.179688 2.742188 -10.128906 2.878906 -10.054688 C 3.03125 -9.96875 3.160156 -9.832031 3.257812 -9.652344 C 3.355469 -9.480469 3.402344 -9.25 3.402344 -8.972656 C 3.402344 -8.605469 3.269531 -8.3125 3.003906 -8.089844 C 2.753906 -7.882812 2.464844 -7.777344 2.136719 -7.777344 C 1.867188 -7.777344 1.632812 -7.847656 1.433594 -7.988281 C 1.257812 -8.109375 1.105469 -8.265625 0.984375 -8.449219 C 0.863281 -8.625 0.777344 -8.820312 0.71875 -9.035156 C 0.660156 -9.242188 0.632812 -9.445312 0.632812 -9.632812 C 0.632812 -10.339844 0.757812 -10.941406 1.011719 -11.433594 C 1.261719 -11.921875 1.589844 -12.316406 1.996094 -12.613281 C 2.394531 -12.902344 2.847656 -13.113281 3.351562 -13.238281 C 3.839844 -13.363281 4.332031 -13.425781 4.828125 -13.425781 C 5.445312 -13.425781 6.015625 -13.328125 6.546875 -13.136719 C 7.082031 -12.941406 7.546875 -12.664062 7.933594 -12.300781 C 8.328125 -11.9375 8.632812 -11.5 8.847656 -10.996094 C 9.0625 -10.492188 9.167969 -9.933594 9.167969 -9.320312 Z M 8.476562 -9.320312 C 8.476562 -9.839844 8.390625 -10.304688 8.210938 -10.722656 C 8.035156 -11.140625 7.785156 -11.496094 7.464844 -11.792969 C 7.144531 -12.09375 6.757812 -12.324219 6.3125 -12.488281 C 5.859375 -12.652344 5.363281 -12.734375 4.828125 -12.734375 C 4.386719 -12.734375 3.953125 -12.679688 3.519531 -12.570312 C 3.101562 -12.464844 2.730469 -12.292969 2.40625 -12.054688 C 2.085938 -11.820312 1.828125 -11.507812 1.625 -11.117188 C 1.421875 -10.722656 1.320312 -10.230469 1.320312 -9.632812 C 1.320312 -9.507812 1.34375 -9.367188 1.382812 -9.21875 C 1.421875 -9.078125 1.480469 -8.949219 1.558594 -8.832031 C 1.632812 -8.71875 1.722656 -8.628906 1.828125 -8.554688 C 1.910156 -8.496094 2.011719 -8.46875 2.136719 -8.46875 C 2.300781 -8.46875 2.441406 -8.519531 2.558594 -8.621094 C 2.660156 -8.703125 2.710938 -8.820312 2.710938 -8.972656 C 2.710938 -9.132812 2.691406 -9.25 2.652344 -9.320312 C 2.617188 -9.386719 2.578125 -9.429688 2.539062 -9.453125 C 2.476562 -9.488281 2.40625 -9.511719 2.332031 -9.523438 C 2.234375 -9.539062 2.144531 -9.546875 2.0625 -9.546875 L 2.042969 -9.546875 C 1.753906 -9.566406 1.539062 -9.632812 1.40625 -9.757812 C 1.257812 -9.894531 1.183594 -10.109375 1.183594 -10.40625 C 1.183594 -10.8125 1.277344 -11.183594 1.464844 -11.523438 C 1.648438 -11.851562 1.890625 -12.136719 2.191406 -12.375 C 2.484375 -12.605469 2.816406 -12.789062 3.1875 -12.925781 C 3.5625 -13.0625 3.949219 -13.128906 4.347656 -13.128906 C 5.304688 -13.128906 6.058594 -12.792969 6.605469 -12.117188 C 7.136719 -11.464844 7.402344 -10.601562 7.402344 -9.523438 C 7.402344 -8.9375 7.328125 -8.390625 7.183594 -7.882812 C 7.042969 -7.378906 6.84375 -6.894531 6.582031 -6.425781 C 6.328125 -5.964844 6.011719 -5.519531 5.640625 -5.089844 C 5.273438 -4.664062 4.859375 -4.25 4.398438 -3.835938 L 3.136719 -2.675781 C 2.769531 -2.339844 2.449219 -2.015625 2.175781 -1.707031 C 1.90625 -1.398438 1.675781 -1.097656 1.488281 -0.800781 C 1.308594 -0.511719 1.15625 -0.203125 1.042969 0.117188 L 0.71875 0 L 0.71875 -0.34375 L 8.769531 -0.34375 L 8.769531 0 L 8.425781 -0.0429688 L 8.867188 -3.597656 L 9.210938 -3.554688 L 9.210938 -3.210938 L 8.898438 -3.210938 L 8.898438 -3.554688 L 9.238281 -3.507812 L 8.921875 -1.203125 L 1.304688 -1.203125 L 1.757812 -1.765625 C 2.222656 -2.34375 2.792969 -2.933594 3.464844 -3.527344 C 4.128906 -4.117188 4.949219 -4.78125 5.925781 -5.527344 C 6.320312 -5.824219 6.683594 -6.125 7.003906 -6.425781 C 7.320312 -6.714844 7.585938 -7.015625 7.804688 -7.320312 C 8.019531 -7.621094 8.1875 -7.933594 8.304688 -8.261719 C 8.421875 -8.578125 8.476562 -8.933594 8.476562 -9.320312 Z M 8.476562 -9.320312 "/></g></g><g style="fill:#ff1e88;fill-opacity:1;"><g transform="translate(26.39469, 21.203529)"><path style="stroke:none" d="M 11.179688 -12.785156 L 3.296875 -0.113281 L 3.003906 -0.292969 L 3.003906 -0.640625 L 5.359375 -0.640625 C 6.207031 -0.640625 6.914062 -0.671875 7.484375 -0.738281 C 8.042969 -0.804688 8.46875 -0.886719 8.765625 -0.988281 C 9.394531 -1.199219 9.8125 -1.464844 10.027344 -1.792969 C 10.246094 -2.128906 10.355469 -2.519531 10.355469 -2.964844 L 10.355469 -4.03125 L 11.34375 -4.03125 L 11.34375 0.34375 L 0.078125 0.34375 L 8.253906 -12.855469 L 8.546875 -12.675781 L 8.546875 -12.328125 L 5.636719 -12.328125 C 5.359375 -12.328125 5.054688 -12.320312 4.714844 -12.300781 C 4.394531 -12.285156 4.078125 -12.238281 3.765625 -12.164062 C 3.464844 -12.089844 3.1875 -11.980469 2.925781 -11.832031 C 2.695312 -11.699219 2.515625 -11.511719 2.386719 -11.273438 L 2.382812 -11.273438 L 2.382812 -11.269531 C 2.300781 -11.128906 2.238281 -10.933594 2.191406 -10.683594 C 2.140625 -10.417969 2.113281 -10.074219 2.113281 -9.652344 L 2.113281 -9.050781 L 1.128906 -9.050781 L 1.128906 -13.3125 L 11.507812 -13.3125 Z M 10.59375 -13.152344 L 10.886719 -12.96875 L 10.886719 -12.625 L 1.472656 -12.625 L 1.472656 -12.96875 L 1.820312 -12.96875 L 1.820312 -9.394531 L 1.472656 -9.394531 L 1.472656 -9.742188 L 1.769531 -9.742188 L 1.769531 -9.394531 L 1.421875 -9.394531 L 1.421875 -9.652344 C 1.421875 -10.117188 1.453125 -10.503906 1.511719 -10.8125 C 1.574219 -11.140625 1.664062 -11.40625 1.78125 -11.609375 L 2.082031 -11.441406 L 1.777344 -11.605469 C 1.96875 -11.957031 2.238281 -12.230469 2.582031 -12.429688 C 2.898438 -12.613281 3.238281 -12.746094 3.601562 -12.835938 C 3.957031 -12.917969 4.3125 -12.972656 4.679688 -12.992188 C 5.027344 -13.011719 5.347656 -13.019531 5.636719 -13.019531 L 9.167969 -13.019531 L 0.992188 0.183594 L 0.699219 0 L 0.699219 -0.34375 L 10.996094 -0.34375 L 10.996094 0 L 10.652344 0 L 10.652344 -3.683594 L 10.996094 -3.683594 L 10.996094 -3.339844 L 10.703125 -3.339844 L 10.703125 -3.683594 L 11.046875 -3.683594 L 11.046875 -2.964844 C 11.046875 -2.382812 10.902344 -1.863281 10.605469 -1.414062 C 10.304688 -0.953125 9.765625 -0.59375 8.992188 -0.335938 C 8.648438 -0.21875 8.171875 -0.125 7.566406 -0.0546875 C 6.96875 0.015625 6.234375 0.0507812 5.359375 0.0507812 L 2.382812 0.0507812 Z M 10.59375 -13.152344 "/></g></g><g style="fill:#ff1e88;fill-opacity:1;"><g transform="translate(38.68074, 21.203529)"><path style="stroke:none" d=""/></g></g><g style="fill:#ff1e88;fill-opacity:1;"><g transform="translate(42.788279, 21.203529)"><path style="stroke:none" d="M 12.136719 -12.96875 L 12.136719 -8.808594 L 11.148438 -8.808594 L 11.148438 -9.15625 C 11.148438 -9.863281 11.097656 -10.4375 10.992188 -10.871094 C 10.898438 -11.261719 10.738281 -11.5625 10.507812 -11.773438 C 10.273438 -11.984375 9.9375 -12.128906 9.492188 -12.203125 C 9.003906 -12.285156 8.375 -12.328125 7.609375 -12.328125 L 7.09375 -12.328125 L 7.09375 -12.675781 L 7.4375 -12.675781 L 7.4375 -0.292969 L 7.09375 -0.292969 L 7.09375 -0.640625 L 9.335938 -0.640625 L 9.335938 0.34375 L 2.96875 0.34375 L 2.96875 -0.640625 L 5.214844 -0.640625 L 5.214844 -0.292969 L 4.867188 -0.292969 L 4.867188 -12.675781 L 5.214844 -12.675781 L 5.214844 -12.328125 L 4.789062 -12.328125 C 4.066406 -12.328125 3.460938 -12.296875 2.964844 -12.230469 C 2.511719 -12.171875 2.15625 -12.042969 1.886719 -11.851562 C 1.636719 -11.667969 1.457031 -11.390625 1.34375 -11.019531 C 1.21875 -10.601562 1.15625 -10.035156 1.15625 -9.320312 L 1.15625 -8.808594 L 0.171875 -8.808594 L 0.171875 -13.3125 L 12.136719 -13.3125 Z M 11.445312 -12.96875 L 11.789062 -12.96875 L 11.789062 -12.625 L 0.515625 -12.625 L 0.515625 -12.96875 L 0.859375 -12.96875 L 0.859375 -9.15625 L 0.515625 -9.15625 L 0.515625 -9.5 L 0.808594 -9.5 L 0.808594 -9.15625 L 0.464844 -9.15625 L 0.464844 -9.320312 C 0.464844 -10.105469 0.539062 -10.734375 0.683594 -11.21875 C 0.839844 -11.738281 1.105469 -12.136719 1.484375 -12.410156 C 1.84375 -12.671875 2.308594 -12.839844 2.875 -12.914062 C 3.398438 -12.984375 4.039062 -13.019531 4.789062 -13.019531 L 5.558594 -13.019531 L 5.558594 0.0507812 L 3.316406 0.0507812 L 3.316406 -0.292969 L 3.660156 -0.292969 L 3.660156 0 L 3.316406 0 L 3.316406 -0.34375 L 8.988281 -0.34375 L 8.988281 0 L 8.644531 0 L 8.644531 -0.292969 L 8.988281 -0.292969 L 8.988281 0.0507812 L 6.746094 0.0507812 L 6.746094 -13.019531 L 7.609375 -13.019531 C 8.414062 -13.019531 9.082031 -12.976562 9.609375 -12.886719 C 10.183594 -12.789062 10.640625 -12.589844 10.972656 -12.285156 C 11.308594 -11.980469 11.539062 -11.5625 11.664062 -11.03125 C 11.78125 -10.546875 11.839844 -9.917969 11.839844 -9.15625 L 11.496094 -9.15625 L 11.496094 -9.5 L 11.789062 -9.5 L 11.789062 -9.15625 L 11.445312 -9.15625 Z M 11.445312 -12.96875 "/></g></g><g style="fill:#ff1e88;fill-opacity:1;"><g transform="translate(55.092739, 21.203529)"><path style="stroke:none" d="M 6.207031 -13.3125 C 7.734375 -13.3125 8.882812 -13.027344 9.664062 -12.453125 C 10.476562 -11.859375 10.882812 -10.941406 10.882812 -9.707031 C 10.882812 -8.742188 10.484375 -7.976562 9.6875 -7.410156 C 8.941406 -6.878906 7.925781 -6.53125 6.640625 -6.363281 L 6.59375 -6.707031 L 6.941406 -6.707031 L 6.941406 -6.667969 L 6.59375 -6.667969 L 6.621094 -7.011719 C 7.441406 -6.949219 8.09375 -6.820312 8.574219 -6.628906 C 9.085938 -6.425781 9.492188 -6.113281 9.789062 -5.6875 C 9.925781 -5.496094 10.035156 -5.292969 10.121094 -5.082031 C 10.203125 -4.882812 10.273438 -4.625 10.339844 -4.316406 C 10.40625 -4.019531 10.460938 -3.644531 10.511719 -3.199219 L 10.695312 -1.53125 C 10.730469 -1.183594 10.800781 -0.914062 10.917969 -0.71875 C 10.992188 -0.59375 11.128906 -0.53125 11.328125 -0.53125 C 11.460938 -0.53125 11.5625 -0.542969 11.628906 -0.566406 C 11.730469 -0.601562 11.835938 -0.640625 11.957031 -0.6875 L 12.261719 -0.8125 L 12.667969 0.0703125 L 12.308594 0.195312 C 12.046875 0.289062 11.796875 0.355469 11.5625 0.394531 C 11.328125 0.4375 11.066406 0.457031 10.777344 0.457031 C 10.464844 0.457031 10.171875 0.4375 9.898438 0.398438 C 9.601562 0.355469 9.335938 0.273438 9.097656 0.152344 C 8.855469 0.0234375 8.640625 -0.148438 8.457031 -0.367188 C 8.273438 -0.589844 8.128906 -0.878906 8.03125 -1.234375 L 8.363281 -1.328125 L 8.035156 -1.222656 C 7.929688 -1.550781 7.851562 -1.925781 7.808594 -2.347656 L 7.679688 -3.535156 C 7.636719 -3.921875 7.589844 -4.28125 7.535156 -4.613281 C 7.484375 -4.914062 7.414062 -5.152344 7.320312 -5.328125 C 7.210938 -5.527344 7.082031 -5.679688 6.933594 -5.792969 C 6.773438 -5.910156 6.605469 -5.996094 6.425781 -6.054688 C 6.238281 -6.113281 6.050781 -6.148438 5.855469 -6.15625 C 5.644531 -6.167969 5.453125 -6.175781 5.285156 -6.175781 L 4.183594 -6.175781 L 4.183594 -6.519531 L 4.527344 -6.519531 L 4.527344 -0.292969 L 4.183594 -0.292969 L 4.183594 -0.640625 L 6.40625 -0.640625 L 6.40625 0.34375 L 0.113281 0.34375 L 0.113281 -0.640625 L 2.300781 -0.640625 L 2.300781 -0.292969 L 1.957031 -0.292969 L 1.957031 -12.675781 L 2.300781 -12.675781 L 2.300781 -12.328125 L 0.113281 -12.328125 L 0.113281 -13.3125 Z M 6.207031 -12.625 L 0.460938 -12.625 L 0.460938 -12.96875 L 0.804688 -12.96875 L 0.804688 -12.675781 L 0.460938 -12.675781 L 0.460938 -13.019531 L 2.648438 -13.019531 L 2.648438 0.0507812 L 0.460938 0.0507812 L 0.460938 -0.292969 L 0.804688 -0.292969 L 0.804688 0 L 0.460938 0 L 0.460938 -0.34375 L 6.0625 -0.34375 L 6.0625 0 L 5.714844 0 L 5.714844 -0.292969 L 6.0625 -0.292969 L 6.0625 0.0507812 L 3.835938 0.0507812 L 3.835938 -6.867188 L 5.285156 -6.867188 C 5.464844 -6.867188 5.667969 -6.859375 5.894531 -6.847656 C 6.144531 -6.832031 6.390625 -6.789062 6.632812 -6.710938 C 6.886719 -6.632812 7.121094 -6.511719 7.34375 -6.347656 C 7.574219 -6.175781 7.769531 -5.945312 7.933594 -5.652344 C 8.058594 -5.410156 8.15625 -5.101562 8.214844 -4.726562 C 8.273438 -4.382812 8.324219 -4.011719 8.367188 -3.609375 L 8.496094 -2.421875 C 8.535156 -2.046875 8.601562 -1.714844 8.691406 -1.429688 L 8.695312 -1.425781 L 8.695312 -1.417969 C 8.769531 -1.160156 8.867188 -0.957031 8.988281 -0.8125 C 9.113281 -0.664062 9.253906 -0.546875 9.414062 -0.464844 C 9.582031 -0.378906 9.777344 -0.316406 9.996094 -0.285156 C 10.238281 -0.253906 10.5 -0.234375 10.777344 -0.234375 C 11.027344 -0.234375 11.25 -0.25 11.445312 -0.285156 C 11.640625 -0.320312 11.851562 -0.375 12.082031 -0.453125 L 12.195312 -0.128906 L 11.882812 0.015625 L 11.769531 -0.222656 L 12.085938 -0.367188 L 12.210938 -0.046875 C 12.085938 0.00390625 11.96875 0.046875 11.859375 0.0859375 C 11.71875 0.136719 11.539062 0.160156 11.328125 0.160156 C 10.867188 0.160156 10.53125 -0.015625 10.324219 -0.367188 C 10.15625 -0.652344 10.050781 -1.015625 10.007812 -1.453125 L 9.824219 -3.121094 C 9.777344 -3.546875 9.722656 -3.898438 9.664062 -4.175781 C 9.609375 -4.445312 9.546875 -4.660156 9.480469 -4.828125 C 9.417969 -4.984375 9.332031 -5.140625 9.222656 -5.292969 C 9.003906 -5.601562 8.703125 -5.835938 8.320312 -5.988281 C 7.902344 -6.152344 7.320312 -6.265625 6.566406 -6.324219 L 6.25 -6.347656 L 6.25 -7.007812 L 6.550781 -7.046875 C 7.722656 -7.199219 8.632812 -7.507812 9.285156 -7.972656 C 9.890625 -8.402344 10.191406 -8.980469 10.191406 -9.707031 C 10.191406 -10.710938 9.878906 -11.4375 9.253906 -11.898438 C 8.597656 -12.382812 7.582031 -12.625 6.207031 -12.625 Z M 4.183594 -7.160156 L 5.101562 -7.160156 C 6.210938 -7.160156 7.007812 -7.367188 7.496094 -7.78125 C 7.964844 -8.175781 8.203125 -8.820312 8.203125 -9.707031 C 8.203125 -10.21875 8.136719 -10.644531 8.003906 -10.984375 C 7.878906 -11.308594 7.699219 -11.570312 7.472656 -11.769531 C 7.246094 -11.964844 6.964844 -12.105469 6.636719 -12.191406 C 6.285156 -12.28125 5.890625 -12.328125 5.453125 -12.328125 L 4.183594 -12.328125 L 4.183594 -12.675781 L 4.527344 -12.675781 L 4.527344 -6.816406 L 4.183594 -6.816406 Z M 3.835938 -6.46875 L 3.835938 -13.019531 L 5.453125 -13.019531 C 5.949219 -13.019531 6.402344 -12.964844 6.808594 -12.859375 C 7.242188 -12.75 7.613281 -12.558594 7.925781 -12.289062 C 8.238281 -12.019531 8.480469 -11.667969 8.648438 -11.234375 C 8.8125 -10.8125 8.894531 -10.304688 8.894531 -9.707031 C 8.894531 -8.605469 8.574219 -7.789062 7.941406 -7.253906 C 7.324219 -6.730469 6.378906 -6.46875 5.101562 -6.46875 Z M 3.835938 -6.46875 "/></g></g><g style="fill:#ff1e88;fill-opacity:1;"><g transform="translate(67.378789, 21.203529)"><path style="stroke:none" d="M 5.894531 -13.609375 L 6.34375 -13.609375 L 10.902344 -0.40625 L 10.574219 -0.292969 L 10.574219 -0.640625 L 12.449219 -0.640625 L 12.449219 0.34375 L 6.359375 0.34375 L 6.359375 -0.640625 L 8.511719 -0.640625 L 8.511719 -0.292969 L 8.183594 -0.183594 L 6.855469 -4.089844 L 7.183594 -4.199219 L 7.183594 -3.855469 L 3.242188 -3.855469 L 3.242188 -4.199219 L 3.570312 -4.09375 L 3 -2.335938 C 2.867188 -1.914062 2.765625 -1.59375 2.699219 -1.371094 C 2.632812 -1.160156 2.59375 -1.015625 2.574219 -0.941406 C 2.5625 -0.878906 2.554688 -0.816406 2.554688 -0.753906 C 2.554688 -0.746094 2.554688 -0.742188 2.558594 -0.738281 C 2.5625 -0.730469 2.570312 -0.722656 2.589844 -0.714844 C 2.683594 -0.664062 2.84375 -0.640625 3.078125 -0.640625 L 4.324219 -0.640625 L 4.324219 0.34375 L -0.160156 0.34375 L -0.160156 -0.640625 L 0.847656 -0.640625 C 1.070312 -0.640625 1.214844 -0.683594 1.273438 -0.769531 C 1.382812 -0.925781 1.507812 -1.207031 1.644531 -1.605469 L 5.644531 -13.609375 Z M 5.894531 -12.917969 L 5.894531 -13.261719 L 6.222656 -13.152344 L 2.296875 -1.378906 C 2.140625 -0.917969 1.988281 -0.582031 1.839844 -0.371094 C 1.640625 -0.0898438 1.3125 0.0507812 0.847656 0.0507812 L 0.183594 0.0507812 L 0.183594 -0.292969 L 0.53125 -0.292969 L 0.53125 0 L 0.183594 0 L 0.183594 -0.34375 L 3.980469 -0.34375 L 3.980469 0 L 3.632812 0 L 3.632812 -0.292969 L 3.980469 -0.292969 L 3.980469 0.0507812 L 3.078125 0.0507812 C 2.730469 0.0507812 2.460938 0 2.265625 -0.105469 C 2 -0.246094 1.863281 -0.464844 1.863281 -0.753906 C 1.863281 -0.867188 1.875 -0.976562 1.902344 -1.085938 C 1.921875 -1.179688 1.964844 -1.34375 2.035156 -1.574219 C 2.105469 -1.796875 2.207031 -2.121094 2.34375 -2.546875 L 2.992188 -4.546875 L 7.433594 -4.546875 L 8.992188 0.0507812 L 6.707031 0.0507812 L 6.707031 -0.292969 L 7.050781 -0.292969 L 7.050781 0 L 6.707031 0 L 6.707031 -0.34375 L 12.101562 -0.34375 L 12.101562 0 L 11.757812 0 L 11.757812 -0.292969 L 12.101562 -0.292969 L 12.101562 0.0507812 L 10.328125 0.0507812 L 5.769531 -13.152344 L 6.097656 -13.261719 L 6.097656 -12.917969 Z M 5.488281 -9.96875 L 3.679688 -4.386719 L 3.351562 -4.496094 L 3.351562 -4.839844 L 7.09375 -4.839844 L 7.09375 -4.496094 L 6.765625 -4.382812 L 4.867188 -9.964844 L 5.195312 -10.078125 L 5.195312 -9.730469 L 5.15625 -9.730469 L 5.15625 -10.078125 Z M 4.90625 -10.421875 L 5.441406 -10.421875 L 7.574219 -4.148438 L 2.878906 -4.148438 L 4.828125 -10.183594 Z M 4.90625 -10.421875 "/></g></g><g style="fill:#ff1e88;fill-opacity:1;"><g transform="translate(77.970072, 21.203529)"><path style="stroke:none" d="M 6.054688 -12.96875 L 6.054688 -12.328125 L 3.921875 -12.328125 L 3.921875 -12.675781 L 4.25 -12.785156 L 7.640625 -2.707031 L 7.3125 -2.597656 L 7.3125 -2.941406 L 7.351562 -2.941406 L 7.351562 -2.597656 L 7.023438 -2.714844 L 9.640625 -10.0625 C 9.835938 -10.628906 9.996094 -11.070312 10.113281 -11.386719 C 10.214844 -11.660156 10.265625 -11.855469 10.265625 -11.972656 C 10.265625 -12.058594 10.253906 -12.117188 10.226562 -12.15625 C 10.207031 -12.1875 10.171875 -12.207031 10.121094 -12.222656 C 9.898438 -12.292969 9.511719 -12.328125 8.972656 -12.328125 L 8.625 -12.328125 L 8.625 -13.3125 L 13.332031 -13.3125 L 13.332031 -12.328125 L 12.5625 -12.328125 C 12.324219 -12.328125 12.15625 -12.316406 12.058594 -12.285156 C 11.953125 -12.253906 11.84375 -12.214844 11.742188 -12.164062 L 11.585938 -12.472656 L 11.753906 -12.167969 C 11.660156 -12.117188 11.570312 -12.03125 11.476562 -11.90625 C 11.375 -11.769531 11.273438 -11.5625 11.175781 -11.285156 L 6.820312 0.789062 L 6.148438 0.789062 L 1.480469 -12.558594 L 1.804688 -12.675781 L 1.804688 -12.328125 L -0.03125 -12.328125 L -0.03125 -13.3125 L 6.054688 -13.3125 Z M 5.363281 -12.96875 L 5.710938 -12.96875 L 5.710938 -12.625 L 0.3125 -12.625 L 0.3125 -12.96875 L 0.660156 -12.96875 L 0.660156 -12.675781 L 0.3125 -12.675781 L 0.3125 -13.019531 L 2.050781 -13.019531 L 6.71875 0.328125 L 6.390625 0.441406 L 6.390625 0.0976562 L 6.578125 0.0976562 L 6.578125 0.441406 L 6.25 0.324219 L 10.523438 -11.519531 C 10.648438 -11.859375 10.78125 -12.125 10.921875 -12.316406 C 11.074219 -12.523438 11.242188 -12.675781 11.421875 -12.773438 L 11.425781 -12.777344 L 11.433594 -12.78125 C 11.574219 -12.851562 11.71875 -12.90625 11.871094 -12.949219 C 12.03125 -12.996094 12.261719 -13.019531 12.5625 -13.019531 L 12.988281 -13.019531 L 12.988281 -12.675781 L 12.640625 -12.675781 L 12.640625 -12.96875 L 12.988281 -12.96875 L 12.988281 -12.625 L 8.972656 -12.625 L 8.972656 -12.96875 L 9.316406 -12.96875 L 9.316406 -12.675781 L 8.972656 -12.675781 L 8.972656 -13.019531 C 9.582031 -13.019531 10.035156 -12.972656 10.324219 -12.882812 C 10.53125 -12.820312 10.691406 -12.707031 10.800781 -12.539062 C 10.90625 -12.386719 10.957031 -12.195312 10.957031 -11.972656 C 10.957031 -11.773438 10.890625 -11.496094 10.757812 -11.144531 C 10.644531 -10.832031 10.488281 -10.394531 10.292969 -9.832031 L 7.59375 -2.253906 L 7.066406 -2.253906 L 3.441406 -13.019531 L 5.710938 -13.019531 L 5.710938 -12.675781 L 5.363281 -12.675781 Z M 5.363281 -12.96875 "/></g></g><g style="fill:#ff1e88;fill-opacity:1;"><g transform="translate(91.269213, 21.203529)"><path style="stroke:none" d="M 10.476562 -12.992188 L 10.722656 -9.492188 L 9.710938 -9.492188 L 9.710938 -9.835938 C 9.710938 -10.707031 9.46875 -11.335938 8.980469 -11.722656 C 8.464844 -12.125 7.726562 -12.328125 6.761719 -12.328125 L 3.8125 -12.328125 L 3.8125 -12.675781 L 4.160156 -12.675781 L 4.160156 -6.742188 L 3.8125 -6.742188 L 3.8125 -7.085938 L 5.214844 -7.085938 C 5.769531 -7.085938 6.203125 -7.214844 6.515625 -7.46875 C 6.804688 -7.707031 6.949219 -8.195312 6.949219 -8.933594 L 6.949219 -9.445312 L 7.933594 -9.445312 L 7.933594 -3.855469 L 6.949219 -3.855469 L 6.949219 -4.496094 C 6.949219 -4.855469 6.90625 -5.144531 6.824219 -5.355469 C 6.75 -5.550781 6.644531 -5.699219 6.507812 -5.808594 C 6.367188 -5.921875 6.195312 -5.996094 5.988281 -6.035156 C 5.746094 -6.078125 5.460938 -6.101562 5.140625 -6.101562 L 3.8125 -6.101562 L 3.8125 -6.449219 L 4.160156 -6.449219 L 4.160156 -0.292969 L 3.8125 -0.292969 L 3.8125 -0.640625 L 6.484375 -0.640625 C 6.917969 -0.640625 7.300781 -0.652344 7.628906 -0.675781 C 7.953125 -0.699219 8.238281 -0.734375 8.484375 -0.78125 C 8.71875 -0.824219 8.917969 -0.882812 9.085938 -0.953125 C 9.253906 -1.023438 9.410156 -1.109375 9.546875 -1.207031 C 9.875 -1.429688 10.09375 -1.738281 10.203125 -2.128906 C 10.332031 -2.574219 10.402344 -3.125 10.414062 -3.78125 L 10.417969 -4.121094 L 11.398438 -4.121094 L 11.398438 0.34375 L -0.03125 0.34375 L -0.03125 -0.640625 L 1.933594 -0.640625 L 1.933594 -0.292969 L 1.589844 -0.292969 L 1.589844 -12.675781 L 1.933594 -12.675781 L 1.933594 -12.328125 L -0.03125 -12.328125 L -0.03125 -13.3125 L 10.453125 -13.3125 Z M 9.789062 -12.945312 L 10.132812 -12.96875 L 10.132812 -12.625 L 0.3125 -12.625 L 0.3125 -12.96875 L 0.660156 -12.96875 L 0.660156 -12.675781 L 0.3125 -12.675781 L 0.3125 -13.019531 L 2.28125 -13.019531 L 2.28125 0.0507812 L 0.3125 0.0507812 L 0.3125 -0.292969 L 0.660156 -0.292969 L 0.660156 0 L 0.3125 0 L 0.3125 -0.34375 L 11.054688 -0.34375 L 11.054688 0 L 10.707031 0 L 10.707031 -3.777344 L 11.054688 -3.777344 L 11.054688 -3.429688 L 10.757812 -3.429688 L 10.757812 -3.777344 L 11.101562 -3.769531 C 11.089844 -3.050781 11.011719 -2.441406 10.871094 -1.941406 C 10.710938 -1.386719 10.402344 -0.953125 9.941406 -0.636719 C 9.761719 -0.511719 9.566406 -0.40625 9.351562 -0.316406 C 9.140625 -0.226562 8.894531 -0.15625 8.613281 -0.101562 C 8.339844 -0.0507812 8.03125 -0.0117188 7.679688 0.0117188 C 7.332031 0.0390625 6.933594 0.0507812 6.484375 0.0507812 L 3.46875 0.0507812 L 3.46875 -6.792969 L 5.140625 -6.792969 C 5.503906 -6.792969 5.828125 -6.765625 6.113281 -6.714844 C 6.433594 -6.652344 6.710938 -6.53125 6.941406 -6.347656 C 7.171875 -6.164062 7.347656 -5.914062 7.46875 -5.605469 C 7.582031 -5.3125 7.640625 -4.945312 7.640625 -4.496094 L 7.640625 -4.199219 L 7.292969 -4.199219 L 7.292969 -4.546875 L 7.589844 -4.546875 L 7.589844 -4.199219 L 7.246094 -4.199219 L 7.246094 -9.101562 L 7.589844 -9.101562 L 7.589844 -8.753906 L 7.292969 -8.753906 L 7.292969 -9.101562 L 7.640625 -9.101562 L 7.640625 -8.933594 C 7.640625 -7.976562 7.410156 -7.3125 6.953125 -6.9375 C 6.515625 -6.578125 5.933594 -6.398438 5.214844 -6.398438 L 3.46875 -6.398438 L 3.46875 -13.019531 L 6.761719 -13.019531 C 7.882812 -13.019531 8.765625 -12.765625 9.40625 -12.265625 C 10.070312 -11.738281 10.402344 -10.929688 10.402344 -9.835938 L 10.058594 -9.835938 L 10.058594 -10.183594 L 10.351562 -10.183594 L 10.351562 -9.835938 L 10.007812 -9.8125 Z M 9.789062 -12.945312 "/></g></g><g style="fill:#ff1e88;fill-opacity:1;"><g transform="translate(103.555262, 21.203529)"><path style="stroke:none" d="M 6.371094 -12.96875 L 6.371094 -12.328125 L 4.183594 -12.328125 L 4.183594 -12.675781 L 4.527344 -12.675781 L 4.527344 -0.292969 L 4.183594 -0.292969 L 4.183594 -0.640625 L 6.648438 -0.640625 C 7.203125 -0.640625 7.675781 -0.65625 8.066406 -0.695312 C 8.449219 -0.730469 8.777344 -0.777344 9.050781 -0.84375 C 9.304688 -0.902344 9.511719 -0.976562 9.667969 -1.066406 C 9.824219 -1.152344 9.957031 -1.253906 10.070312 -1.367188 C 10.3125 -1.605469 10.488281 -1.9375 10.597656 -2.355469 C 10.71875 -2.804688 10.78125 -3.433594 10.78125 -4.238281 L 10.78125 -4.582031 L 11.765625 -4.582031 L 11.765625 0.34375 L 0.113281 0.34375 L 0.113281 -0.640625 L 2.300781 -0.640625 L 2.300781 -0.292969 L 1.957031 -0.292969 L 1.957031 -12.675781 L 2.300781 -12.675781 L 2.300781 -12.328125 L 0.113281 -12.328125 L 0.113281 -13.3125 L 6.371094 -13.3125 Z M 5.679688 -12.96875 L 6.023438 -12.96875 L 6.023438 -12.625 L 0.460938 -12.625 L 0.460938 -12.96875 L 0.804688 -12.96875 L 0.804688 -12.675781 L 0.460938 -12.675781 L 0.460938 -13.019531 L 2.648438 -13.019531 L 2.648438 0.0507812 L 0.460938 0.0507812 L 0.460938 -0.292969 L 0.804688 -0.292969 L 0.804688 0 L 0.460938 0 L 0.460938 -0.34375 L 11.421875 -0.34375 L 11.421875 0 L 11.074219 0 L 11.074219 -4.238281 L 11.421875 -4.238281 L 11.421875 -3.890625 L 11.125 -3.890625 L 11.125 -4.238281 L 11.472656 -4.238281 C 11.472656 -3.371094 11.402344 -2.683594 11.265625 -2.175781 C 11.121094 -1.636719 10.886719 -1.207031 10.558594 -0.878906 C 10.402344 -0.722656 10.21875 -0.582031 10.007812 -0.464844 C 9.792969 -0.34375 9.527344 -0.246094 9.207031 -0.171875 C 8.902344 -0.0976562 8.542969 -0.0429688 8.128906 -0.0078125 C 7.71875 0.03125 7.226562 0.0507812 6.648438 0.0507812 L 3.835938 0.0507812 L 3.835938 -13.019531 L 6.023438 -13.019531 L 6.023438 -12.675781 L 5.679688 -12.675781 Z M 5.679688 -12.96875 "/></g></g></g></svg>